<?xml version="1.0" standalone="no"?>
<!DOCTYPE svg PUBLIC "-//W3C//DTD SVG 20010904//EN"
 "http://www.w3.org/TR/2001/REC-SVG-20010904/DTD/svg10.dtd">
<svg version="1.0" xmlns="http://www.w3.org/2000/svg"
 width="512.000000pt" height="512.000000pt" viewBox="0 0 512.000000 512.000000"
 preserveAspectRatio="xMidYMid meet">

<g transform="translate(0.000000,512.000000) scale(0.100000,-0.100000)"
fill="#000000" stroke="none">
<path d="M2410 5109 c-698 -35 -1390 -391 -1833 -942 -280 -348 -458 -744
-538 -1194 -27 -149 -37 -507 -20 -675 115 -1110 947 -2023 2046 -2243 299
-60 649 -63 945 -9 992 181 1792 931 2030 1906 57 232 65 309 65 608 0 299 -8
376 -65 608 -80 328 -238 660 -440 926 -314 414 -748 727 -1225 885 -328 108
-614 147 -965 130z m465 -408 c544 -80 1037 -363 1377 -789 186 -233 334 -532
409 -824 79 -313 79 -743 0 -1056 -220 -860 -929 -1494 -1809 -1616 -143 -20
-441 -21 -577 -1 -565 80 -1062 360 -1407 793 -186 233 -334 532 -409 824 -79
313 -79 743 0 1056 75 292 223 591 409 824 336 422 830 707 1367 788 171 26
467 26 640 1z"/>
<path d="M1162 2908 c4 -945 4 -954 26 -1033 80 -292 294 -506 587 -587 79
-22 87 -23 785 -23 698 0 706 1 785 23 293 81 507 295 587 587 22 78 22 94 23
670 0 543 -1 595 -18 655 -61 213 -229 381 -436 435 -79 20 -207 20 -284 0
-69 -18 -158 -62 -211 -104 -21 -17 -42 -31 -46 -31 -4 0 -28 16 -54 36 -97
74 -220 115 -346 115 -263 1 -499 -182 -576 -446 -15 -53 -18 -124 -21 -602
l-5 -543 201 0 201 0 0 532 0 531 25 43 c37 63 95 94 175 94 80 0 138 -31 175
-94 l25 -43 0 -531 0 -532 200 0 200 0 0 532 0 531 25 43 c37 63 95 94 175 94
80 0 138 -31 175 -94 l26 -44 -3 -589 -3 -588 -32 -66 c-39 -80 -111 -150
-191 -187 l-57 -27 -715 0 -715 0 -66 32 c-80 39 -150 111 -187 191 l-27 57
-3 958 -2 957 -201 0 -200 0 3 -952z"/>
</g>
</svg>
